<svg width="32" height="32" viewBox="0 0 32 32" fill="none" xmlns="http://www.w3.org/2000/svg">
<path d="M16 21.625C19.1066 21.625 21.625 19.1066 21.625 16C21.625 12.8934 19.1066 10.375 16 10.375C12.8934 10.375 10.375 12.8934 10.375 16C10.375 19.1066 12.8934 21.625 16 21.625Z" stroke="#4677FD" stroke-width="1.5" stroke-linecap="round" stroke-linejoin="round"/>
<path d="M24.1329 10.457C24.4151 10.8609 24.6621 11.2883 24.8712 11.7344L27.9064 13.4219C28.2854 15.1193 28.2894 16.879 27.9181 18.5781L24.8712 20.2656C24.6621 20.7117 24.4151 21.1391 24.1329 21.543L24.1915 25.0234C22.9052 26.1956 21.3828 27.0787 19.7267 27.6133L16.7384 25.8203C16.2468 25.8555 15.7534 25.8555 15.2618 25.8203L12.2853 27.6016C10.6239 27.0767 9.09649 26.197 7.80872 25.0234L7.86731 21.5547C7.58755 21.1452 7.34069 20.7141 7.12903 20.2656L4.09388 18.5781C3.71489 16.8807 3.71089 15.121 4.08216 13.4219L7.12903 11.7344C7.33819 11.2883 7.58519 10.8609 7.86731 10.457L7.80872 6.97656C9.09503 5.80441 10.6174 4.92133 12.2736 4.38672L15.2618 6.17969C15.7534 6.14453 16.2468 6.14453 16.7384 6.17969L19.715 4.39844C21.3763 4.92332 22.9038 5.80299 24.1915 6.97656L24.1329 10.457Z" stroke="#4677FD" stroke-width="1.5" stroke-linecap="round" stroke-linejoin="round"/>
<circle cx="16" cy="16" r="16" fill="black" fill-opacity="0.03"/>
</svg>
